<svg xmlns="http://www.w3.org/2000/svg" viewBox="0 0 245.16 201.83" fill="#e8e4dd">
  <path d="M198.42,44.92C192.76,19.22,169.85,0,142.44,0c-7.26,0-14.2,1.35-20.59,3.81-6.39-2.46-13.33-3.81-20.58-3.81-27.51,0-50.5,19.37-56.05,45.22C19.37,50.77,0,73.76,0,101.27s19.45,50.59,45.38,56.08c5.84,25.47,28.64,44.48,55.89,44.48,7.62,0,14.9-1.49,21.55-4.19,6.65,2.7,13.92,4.19,21.54,4.19,27.29,0,50.12-19.05,55.92-44.58h0c25.67-5.69,44.88-28.59,44.88-55.98s-20.14-51.39-46.74-56.35ZM200.65,133.51c-3.97,1.58-8.3,2.45-12.83,2.45-3.57,0-7.01-.54-10.26-1.54.97,3.19,1.49,6.57,1.49,10.07,0,4.6-.89,8.99-2.53,13-4.82,11.93-16.1,20.57-29.51,21.58-.88.07-1.76.1-2.65.1-8.14,0-15.62-2.8-21.54-7.5-5.92,4.7-13.41,7.5-21.55,7.5-.89,0-1.77-.03-2.64-.1-13.45-1.01-24.75-9.69-29.56-21.67-1.61-3.99-2.49-8.35-2.49-12.91,0-3.56.54-7,1.54-10.24-3.4,1.11-7.02,1.71-10.78,1.71-4.36,0-8.53-.8-12.38-2.28-13.05-4.98-22.31-17.61-22.31-32.41s9.32-27.51,22.43-32.46c3.81-1.44,7.94-2.23,12.26-2.23,3.85,0,7.56.63,11.03,1.79-1.16-3.47-1.79-7.18-1.79-11.03,0-4.32.79-8.45,2.23-12.26,4.41-11.69,14.96-20.37,27.72-22.11h.01c1.55-.21,3.12-.32,4.73-.32,8.14,0,15.63,2.8,21.55,7.5,5.92-4.7,13.4-7.5,21.54-7.5.89,0,1.77.03,2.64.1,13.66,1.03,25.12,9.97,29.79,22.25,1.46,3.83,2.26,7.99,2.26,12.34,0,3.79-.61,7.44-1.73,10.86,3.31-1.05,6.84-1.62,10.5-1.62s7.48.61,10.9,1.75c13.81,4.57,23.78,17.59,23.78,32.94s-9.05,27.14-21.85,32.24Z"/>
  <circle cx="148.6" cy="100.91" r="16.25"/>
  <circle cx="98.38" cy="100.91" r="16.25"/>
</svg>
